<svg width="178" height="64" viewBox="0 0 178 64" fill="none" xmlns="http://www.w3.org/2000/svg">
<rect x="12" y="2" width="40" height="40" rx="20" fill="url(#paint0_linear_2283_11515)"/>
<g filter="url(#filter0_dd_2283_11515)">
<rect x="12" y="2" width="40" height="40" rx="20" fill="white" fill-opacity="0.01" shape-rendering="crispEdges"/>
</g>
<path d="M38.9844 13H25.0156C23.8906 13 23 13.8906 23 15.0156V28.9844C23 30.1094 23.8906 31 25.0156 31H38.9844C40.1094 31 41 30.1094 41 28.9844V15.0156C41 13.8906 40.1094 13 38.9844 13ZM38.9844 28.9844H25.0156V15.0156H38.9844V28.9844ZM30.5 27.0156H33.5V23.5H37.0156V20.5H33.5V16.9844H30.5V20.5H26.9844V23.5H30.5V27.0156Z" fill="white"/>
<path d="M64.662 10.1308V7.9043H75.3559V10.1308H71.3558V21H68.6701V10.1308H64.662ZM79.7254 21.192C78.7224 21.192 77.8577 20.9866 77.1312 20.5758C76.4048 20.165 75.8468 19.5816 75.4573 18.8258C75.0678 18.0699 74.8731 17.1738 74.8731 16.1375C74.8731 15.1266 75.0666 14.2397 75.4536 13.4768C75.8406 12.714 76.388 12.1189 77.0958 11.6917C77.8035 11.2644 78.636 11.0508 79.593 11.0508C80.2348 11.0508 80.8344 11.153 81.3918 11.3575C81.9493 11.562 82.4385 11.8704 82.8595 12.2827C83.2805 12.6949 83.6093 13.213 83.8459 13.8368C84.0825 14.4605 84.2008 15.1933 84.2008 16.0351V16.7749H75.9549V15.1162H82.9163L81.6844 15.561C81.6844 15.0493 81.6063 14.6047 81.45 14.2272C81.2938 13.8496 81.0623 13.5567 80.7556 13.3485C80.449 13.1402 80.0678 13.0361 79.612 13.0361C79.1563 13.0361 78.7697 13.1416 78.4522 13.3525C78.1348 13.5634 77.8932 13.8496 77.7275 14.211C77.5618 14.5724 77.479 14.9833 77.479 15.4437V16.6115C77.479 17.1798 77.5741 17.6573 77.7643 18.0439C77.9546 18.4305 78.2222 18.7209 78.5671 18.9152C78.912 19.1095 79.3121 19.2066 79.7674 19.2066C80.075 19.2066 80.3546 19.1628 80.6061 19.0752C80.8577 18.9876 81.074 18.858 81.255 18.6862C81.4361 18.5144 81.5739 18.3026 81.6684 18.0509L84.0521 18.4918C83.8934 19.0346 83.6182 19.5085 83.2265 19.9136C82.8347 20.3186 82.3439 20.633 81.7539 20.8566C81.164 21.0802 80.4878 21.192 79.7254 21.192ZM84.4426 21L88.2427 14.9309L88.2386 16.9792L84.6306 11.1738H87.4778L88.3672 12.7251C88.6488 13.2299 88.9029 13.731 89.1296 14.2284C89.3563 14.7257 89.5848 15.2068 89.8151 15.6717H88.8133C89.0558 15.21 89.2881 14.7297 89.5104 14.2307C89.7326 13.7318 89.9906 13.2299 90.2844 12.7251L91.2097 11.1738H94.0028L90.3296 17.0068V14.9835L94.142 21H91.3131L90.2229 19.1499C89.9345 18.6473 89.6743 18.1475 89.4424 17.6506C89.2105 17.1537 88.976 16.6768 88.7389 16.22H89.7448C89.5172 16.6768 89.2945 17.1537 89.0768 17.6506C88.8591 18.1475 88.6078 18.6473 88.3231 19.1499L87.239 21H84.4426ZM97.8961 21.1905C97.2718 21.1905 96.7126 21.0805 96.2184 20.8603C95.7242 20.6402 95.3356 20.3125 95.0526 19.8771C94.7696 19.4418 94.6281 18.9002 94.6281 18.2525C94.6281 17.7027 94.7284 17.2441 94.9289 16.8767C95.1294 16.5093 95.4038 16.2135 95.7521 15.9892C96.1005 15.7649 96.4963 15.5942 96.9395 15.4772C97.3828 15.3602 97.8472 15.2787 98.3327 15.2328C98.8996 15.1756 99.3574 15.1218 99.706 15.0712C100.055 15.0207 100.31 14.9417 100.473 14.8342C100.636 14.7267 100.718 14.567 100.718 14.3553V14.312C100.718 14.0316 100.658 13.7944 100.539 13.6004C100.42 13.4064 100.246 13.2578 100.017 13.1545C99.7883 13.0512 99.5071 12.9995 99.1735 12.9995C98.8376 12.9995 98.5438 13.0506 98.2921 13.1528C98.0404 13.255 97.8343 13.3914 97.6738 13.5621C97.5132 13.7328 97.3976 13.9245 97.3269 14.1372L94.9094 13.7359C95.0759 13.1635 95.3556 12.678 95.7485 12.2794C96.1415 11.8808 96.6297 11.5764 97.2134 11.3661C97.7971 11.1559 98.4532 11.0508 99.1817 11.0508C99.7092 11.0508 100.222 11.1133 100.72 11.2383C101.218 11.3632 101.665 11.5587 102.061 11.8248C102.457 12.0908 102.771 12.4348 103.004 12.8568C103.237 13.2788 103.353 13.7881 103.353 14.3848V21H100.853V19.6356H100.767C100.608 19.94 100.397 20.2091 100.133 20.4428C99.8696 20.6764 99.5527 20.8595 99.1822 20.9919C98.8118 21.1243 98.3831 21.1905 97.8961 21.1905ZM98.6384 19.3422C99.0535 19.3422 99.4181 19.2596 99.7322 19.0943C100.046 18.9291 100.292 18.7061 100.47 18.4253C100.648 18.1445 100.736 17.8318 100.736 17.4872V16.4239C100.656 16.4779 100.538 16.5286 100.381 16.5759C100.224 16.6232 100.05 16.6655 99.8567 16.7029C99.6638 16.7403 99.4734 16.7727 99.2855 16.8002C99.0975 16.8276 98.9305 16.8518 98.7845 16.8725C98.4606 16.9162 98.1758 16.9904 97.9302 17.0952C97.6846 17.2 97.4938 17.3401 97.3579 17.5155C97.2219 17.6909 97.154 17.9108 97.154 18.175C97.154 18.4294 97.2181 18.6432 97.3465 18.8163C97.4748 18.9895 97.6501 19.1204 97.8726 19.2091C98.095 19.2978 98.3503 19.3422 98.6384 19.3422ZM109.055 21.192C108.264 21.192 107.563 21.0788 106.954 20.8524C106.344 20.6261 105.846 20.2982 105.46 19.8687C105.074 19.4393 104.825 18.9212 104.711 18.3144L107.168 17.8923C107.295 18.3491 107.52 18.6916 107.842 18.9199C108.164 19.1481 108.594 19.2622 109.132 19.2622C109.634 19.2622 110.031 19.1663 110.323 18.9746C110.614 18.7829 110.76 18.5403 110.76 18.2467C110.76 17.9892 110.657 17.7784 110.449 17.6146C110.242 17.4507 109.922 17.3241 109.49 17.235L107.798 16.8862C106.85 16.6911 106.142 16.3613 105.674 15.8967C105.206 15.4322 104.971 14.8321 104.971 14.0964C104.971 13.4674 105.143 12.9258 105.486 12.4714C105.83 12.017 106.31 11.6666 106.928 11.4203C107.545 11.1739 108.267 11.0508 109.094 11.0508C109.872 11.0508 110.546 11.1582 111.114 11.373C111.682 11.5878 112.141 11.8906 112.491 12.2815C112.84 12.6724 113.076 13.1357 113.197 13.6713L110.858 14.0832C110.755 13.7475 110.561 13.4732 110.278 13.2605C109.995 13.0477 109.614 12.9413 109.136 12.9413C108.702 12.9413 108.339 13.0326 108.045 13.2151C107.752 13.3976 107.606 13.6386 107.606 13.938C107.606 14.1842 107.7 14.3926 107.89 14.5633C108.079 14.734 108.405 14.8677 108.869 14.9645L110.634 15.3161C111.585 15.508 112.292 15.8228 112.757 16.2605C113.221 16.6981 113.453 17.2681 113.453 17.9704C113.453 18.6142 113.265 19.1777 112.889 19.6607C112.513 20.1438 111.995 20.5197 111.335 20.7886C110.674 21.0575 109.914 21.192 109.055 21.192ZM117.899 21L122.379 7.9043H125.888L130.482 21H127.499L125.401 14.6829C125.145 13.867 124.888 12.9736 124.63 12.0027C124.371 11.0318 124.098 9.97384 123.81 8.82892H124.392C124.114 9.97923 123.853 11.0425 123.611 12.0188C123.368 12.9952 123.127 13.8832 122.886 14.6829L120.861 21H117.899ZM120.698 17.9608V15.8563H127.683V17.9608H120.698ZM131.626 21V11.1738H134.262V21H131.626ZM132.943 9.89293C132.546 9.89293 132.206 9.76025 131.923 9.49488C131.64 9.22951 131.498 8.91107 131.498 8.53956C131.498 8.16046 131.64 7.83978 131.923 7.57751C132.206 7.31524 132.546 7.1841 132.943 7.1841C133.342 7.1841 133.683 7.31507 133.967 7.577C134.251 7.83893 134.393 8.1597 134.393 8.53931C134.393 8.91133 134.251 9.22993 133.967 9.49513C133.683 9.76033 133.342 9.89293 132.943 9.89293ZM136.054 21V11.1738H138.609V12.8849H138.714C138.893 12.2793 139.194 11.8208 139.619 11.5096C140.044 11.1983 140.531 11.0427 141.083 11.0427C141.219 11.0427 141.365 11.0504 141.521 11.0657C141.678 11.0811 141.816 11.1028 141.935 11.1308V13.4858C141.818 13.4456 141.648 13.413 141.424 13.3879C141.2 13.3629 140.991 13.3504 140.796 13.3504C140.393 13.3504 140.032 13.4375 139.712 13.6116C139.392 13.7858 139.142 14.0268 138.961 14.3348C138.78 14.6427 138.69 15.0004 138.69 15.4077V21H136.054ZM145.133 21L142.234 11.1738H145L145.853 14.8079C145.999 15.4571 146.156 16.1642 146.326 16.9291C146.496 17.6941 146.653 18.539 146.797 19.4638H146.496C146.65 18.5578 146.817 17.7209 146.999 16.953C147.18 16.1852 147.35 15.4701 147.507 14.8079L148.405 11.1738H150.833L151.703 14.8079C151.855 15.4652 152.021 16.1763 152.203 16.9413C152.385 17.7062 152.553 18.5471 152.707 19.4638H152.411C152.554 18.5524 152.706 17.7143 152.867 16.9493C153.028 16.1844 153.182 15.4706 153.33 14.8079L154.184 11.1738H156.987L154.07 21H151.39L150.301 17.2077C150.194 16.8325 150.088 16.4145 149.982 15.9536C149.877 15.4928 149.774 15.0234 149.674 14.5455C149.575 14.0675 149.473 13.6211 149.369 13.2063H149.834C149.736 13.6184 149.635 14.0641 149.533 14.5434C149.43 15.0227 149.327 15.4941 149.222 15.9577C149.118 16.4212 149.011 16.8379 148.901 17.2077L147.812 21H145.133ZM160.638 21.1905C160.013 21.1905 159.454 21.0805 158.96 20.8603C158.466 20.6402 158.077 20.3125 157.794 19.8771C157.511 19.4418 157.37 18.9002 157.37 18.2525C157.37 17.7027 157.47 17.2441 157.67 16.8767C157.871 16.5093 158.145 16.2135 158.494 15.9892C158.842 15.7649 159.238 15.5942 159.681 15.4772C160.124 15.3602 160.589 15.2787 161.074 15.2328C161.641 15.1756 162.099 15.1218 162.448 15.0712C162.796 15.0207 163.052 14.9417 163.215 14.8342C163.378 14.7267 163.459 14.567 163.459 14.3553V14.312C163.459 14.0316 163.4 13.7944 163.28 13.6004C163.161 13.4064 162.987 13.2578 162.759 13.1545C162.53 13.0512 162.249 12.9995 161.915 12.9995C161.579 12.9995 161.285 13.0506 161.034 13.1528C160.782 13.255 160.576 13.3914 160.415 13.5621C160.255 13.7328 160.139 13.9245 160.069 14.1372L157.651 13.7359C157.817 13.1635 158.097 12.678 158.49 12.2794C158.883 11.8808 159.371 11.5764 159.955 11.3661C160.539 11.1559 161.195 11.0508 161.923 11.0508C162.451 11.0508 162.964 11.1133 163.462 11.2383C163.96 11.3632 164.407 11.5587 164.803 11.8248C165.199 12.0908 165.513 12.4348 165.746 12.8568C165.978 13.2788 166.095 13.7881 166.095 14.3848V21H163.595V19.6356H163.508C163.349 19.94 163.138 20.2091 162.875 20.4428C162.611 20.6764 162.294 20.8595 161.924 20.9919C161.553 21.1243 161.125 21.1905 160.638 21.1905ZM161.38 19.3422C161.795 19.3422 162.16 19.2596 162.474 19.0943C162.788 18.9291 163.034 18.7061 163.212 18.4253C163.389 18.1445 163.478 17.8318 163.478 17.4872V16.4239C163.398 16.4779 163.279 16.5286 163.123 16.5759C162.966 16.6232 162.791 16.6655 162.598 16.7029C162.405 16.7403 162.215 16.7727 162.027 16.8002C161.839 16.8276 161.672 16.8518 161.526 16.8725C161.202 16.9162 160.917 16.9904 160.672 17.0952C160.426 17.2 160.235 17.3401 160.099 17.5155C159.964 17.6909 159.896 17.9108 159.896 18.175C159.896 18.4294 159.96 18.6432 160.088 18.8163C160.216 18.9895 160.392 19.1204 160.614 19.2091C160.837 19.2978 161.092 19.3422 161.38 19.3422ZM167.516 24.4789L168.12 22.4908L168.443 22.5774C168.8 22.6689 169.115 22.6941 169.389 22.6528C169.662 22.6116 169.882 22.5002 170.048 22.3187C170.215 22.1371 170.316 21.8832 170.35 21.5569L170.428 21.029L166.736 11.1738H169.536L171.186 16.2748C171.39 16.919 171.554 17.5628 171.68 18.2064C171.805 18.8499 171.948 19.5225 172.109 20.2243H171.495C171.656 19.5225 171.814 18.8476 171.971 18.1996C172.128 17.5515 172.312 16.9099 172.522 16.2748L174.252 11.1738H177.019L172.846 22.1593C172.647 22.6871 172.391 23.1447 172.08 23.5323C171.768 23.9198 171.381 24.2187 170.919 24.4289C170.456 24.6391 169.895 24.7441 169.236 24.7441C168.889 24.7441 168.562 24.7189 168.255 24.6684C167.949 24.6179 167.702 24.5547 167.516 24.4789Z" fill="#1E293B"/>
<path d="M66.3051 26.2695V35H64.9661V26.2695H66.3051ZM69.4356 35V26.2695H70.9759L74.262 31.4654C74.3712 31.6374 74.4943 31.8429 74.6314 32.0822C74.7684 32.3214 74.9134 32.5901 75.0663 32.8882C75.2191 33.1864 75.3702 33.5113 75.5193 33.8629H75.3527C75.3203 33.5305 75.2951 33.2011 75.277 32.8748C75.2589 32.5485 75.2462 32.2432 75.2388 31.9591C75.2313 31.6749 75.2276 31.4342 75.2276 31.2369V26.2695H76.5793V35H75.0293L72.0857 30.3519C71.9278 30.0975 71.7739 29.8419 71.6239 29.5851C71.4739 29.3283 71.3081 29.0313 71.1266 28.6942C70.9451 28.357 70.7227 27.9452 70.4594 27.4586H70.6718C70.6935 27.888 70.7133 28.2898 70.7314 28.664C70.7495 29.0382 70.7641 29.3687 70.7753 29.6555C70.7865 29.9423 70.7921 30.1712 70.7921 30.3423V35H69.4356ZM82.6428 35.1439C81.9907 35.1439 81.424 35.0404 80.9429 34.8334C80.4617 34.6264 80.0857 34.331 79.8148 33.9471C79.5439 33.5633 79.3938 33.1054 79.3642 32.5735H80.7061C80.7346 32.8904 80.838 33.1526 81.0164 33.3603C81.1948 33.5679 81.426 33.7226 81.7101 33.8243C81.9941 33.9261 82.3029 33.977 82.6364 33.977C83.0057 33.977 83.3347 33.9185 83.6235 33.8015C83.9122 33.6846 84.1398 33.52 84.3062 33.3078C84.4726 33.0955 84.5557 32.8499 84.5557 32.5708C84.5557 32.3163 84.4833 32.108 84.3385 31.9459C84.1936 31.7838 83.9967 31.649 83.7476 31.5413C83.4986 31.4337 83.2167 31.3386 82.9021 31.2562L81.8791 30.9774C81.164 30.7845 80.6064 30.5002 80.2063 30.1246C79.8062 29.7489 79.6061 29.2625 79.6061 28.6654C79.6061 28.162 79.7421 27.7215 80.014 27.3439C80.286 26.9663 80.6554 26.6733 81.1222 26.4649C81.589 26.2565 82.1153 26.1523 82.701 26.1523C83.2991 26.1523 83.8254 26.2569 84.2798 26.466C84.7342 26.6751 85.0915 26.9615 85.3516 27.3252C85.6116 27.6888 85.7484 28.103 85.7619 28.5676H84.4591C84.4139 28.1671 84.2285 27.8573 83.903 27.6383C83.5774 27.4192 83.1671 27.3097 82.6722 27.3097C82.3211 27.3097 82.0154 27.3652 81.755 27.4763C81.4947 27.5874 81.2937 27.7394 81.1523 27.9322C81.0108 28.1251 80.94 28.3452 80.94 28.5927C80.94 28.8671 81.0249 29.0897 81.1947 29.2605C81.3644 29.4313 81.5715 29.566 81.8158 29.6646C82.0601 29.7632 82.2933 29.8418 82.5155 29.9004L83.3601 30.1248C83.6387 30.1943 83.9253 30.289 84.2198 30.4089C84.5142 30.5289 84.787 30.6835 85.0381 30.8729C85.2893 31.0623 85.4922 31.2968 85.647 31.5764C85.8018 31.8561 85.8791 32.1923 85.8791 32.5852C85.8791 33.0794 85.7519 33.5194 85.4976 33.9054C85.2432 34.2914 84.8748 34.5943 84.3923 34.8141C83.9098 35.034 83.3266 35.1439 82.6428 35.1439ZM88.1573 27.4205V26.2695H94.9321V27.4205H92.219V35H90.88V27.4205H88.1573ZM98.9664 26.2695V35H97.6274V26.2695H98.9664ZM101.661 27.4205V26.2695H108.436V27.4205H105.722V35H104.384V27.4205H101.661ZM114.609 35.1343C113.91 35.1343 113.3 35.0001 112.777 34.7316C112.254 34.4631 111.849 34.0929 111.562 33.621C111.275 33.1491 111.131 32.6083 111.131 31.9987V26.2695H112.47V31.8908C112.47 32.2827 112.557 32.6313 112.731 32.9363C112.905 33.2414 113.152 33.4815 113.471 33.6567C113.79 33.8319 114.17 33.9195 114.609 33.9195C115.049 33.9195 115.428 33.8319 115.747 33.6567C116.065 33.4815 116.31 33.2414 116.482 32.9363C116.655 32.6313 116.741 32.2827 116.741 31.8908V26.2695H118.08V31.9987C118.08 32.6083 117.936 33.1491 117.649 33.621C117.361 34.0929 116.957 34.4631 116.437 34.7316C115.917 35.0001 115.308 35.1343 114.609 35.1343ZM120.778 27.4205V26.2695H127.552V27.4205H124.839V35H123.5V27.4205H120.778ZM130.248 35V26.2695H135.743V27.4205H131.587V30.0214H135.449V31.164H131.587V33.849H135.782V35H130.248Z" fill="#24BDF0"/>
<defs>
<filter id="filter0_dd_2283_11515" x="0" y="0" width="64" height="64" filterUnits="userSpaceOnUse" color-interpolation-filters="sRGB">
<feFlood flood-opacity="0" result="BackgroundImageFix"/>
<feColorMatrix in="SourceAlpha" type="matrix" values="0 0 0 0 0 0 0 0 0 0 0 0 0 0 0 0 0 0 127 0" result="hardAlpha"/>
<feMorphology radius="4" operator="erode" in="SourceAlpha" result="effect1_dropShadow_2283_11515"/>
<feOffset dy="4"/>
<feGaussianBlur stdDeviation="3"/>
<feComposite in2="hardAlpha" operator="out"/>
<feColorMatrix type="matrix" values="0 0 0 0 0.141176 0 0 0 0 0.741176 0 0 0 0 0.941176 0 0 0 0.2 0"/>
<feBlend mode="normal" in2="BackgroundImageFix" result="effect1_dropShadow_2283_11515"/>
<feColorMatrix in="SourceAlpha" type="matrix" values="0 0 0 0 0 0 0 0 0 0 0 0 0 0 0 0 0 0 127 0" result="hardAlpha"/>
<feMorphology radius="3" operator="erode" in="SourceAlpha" result="effect2_dropShadow_2283_11515"/>
<feOffset dy="10"/>
<feGaussianBlur stdDeviation="7.5"/>
<feComposite in2="hardAlpha" operator="out"/>
<feColorMatrix type="matrix" values="0 0 0 0 0.141176 0 0 0 0 0.741176 0 0 0 0 0.941176 0 0 0 0.2 0"/>
<feBlend mode="normal" in2="effect1_dropShadow_2283_11515" result="effect2_dropShadow_2283_11515"/>
<feBlend mode="normal" in="SourceGraphic" in2="effect2_dropShadow_2283_11515" result="shape"/>
</filter>
<linearGradient id="paint0_linear_2283_11515" x1="12" y1="42" x2="52" y2="2" gradientUnits="userSpaceOnUse">
<stop stop-color="#24BDF0"/>
<stop offset="1" stop-color="#89CFF0"/>
</linearGradient>
</defs>
</svg>
